{
  "title": "Guardians Of The Galaxy 2014 1080p R6Rip NEW AUDIO x264 Pimp4003",
  "uid": 11295746,
  "size": 3917003704,
  "categoryP": "video",
  "categoryS": "hd___movies",
  "magnet": "?xt=urn:btih:1e6af33076316ea8d6f970b220596fd3c96c1d34&amp;dn=Guardians+Of+The+Galaxy+2014+1080p+R6Rip+NEW+AUDIO+x264+Pimp4003&amp;tr=udp%3A%2F%2Ftracker.openbittorrent.com%3A80&amp;tr=udp%3A%2F%2Fopen.demonii.com%3A1337&amp;tr=udp%3A%2F%2Ftracker.coppersurfer.tk%3A6969&amp;tr=udp%3A%2F%2Fexodus.desync.com%3A6969",
  "seeders": 95,
  "leechers": 1,
  "uploader": "shawnmurthy",
  "files": -1,
  "time": 1414377348,
  "description": " &lt;a href=&quot;http://i.imgur.com/fW5GLTr.jpg&quot; rel=&quot;nofollow&quot; target=&quot;_NEW&quot;&gt;http://i.imgur.com/fW5GLTr.jpg&lt;/a&gt;\n\nTHERE ARE NO STRINGS.....ON ME.......ULTRON.......EVIL LOOKS GOOD\n &lt;a href=&quot;\nhttp://i.imgur.com/Ou2HHEy.png&quot; rel=&quot;nofollow&quot; target=&quot;_NEW&quot;&gt;\nhttp://i.imgur.com/Ou2HHEy.png&lt;/a&gt;\n &lt;a href=&quot;\nhttp://i.imgur.com/xuXc6Bx.jpg&quot; rel=&quot;nofollow&quot; target=&quot;_NEW&quot;&gt;\nhttp://i.imgur.com/xuXc6Bx.jpg&lt;/a&gt;\n\nDEFF BEST QUALITY OUT FOR THIS MOVIE OUR SO FAR UNTIL WEB-DL COMES OUT......VIDEO IS GOOD....DID A BUNCH OF WORK ON IT....GOT NEW SOURCE AUDIO....BETTER THEN THE ONES OUT THERE AND ALSO ITS CLOSE TO TS EVEN SOMETIMES IT IS HOLLOW DID THE BEST I COULD TO FIX THAT............ENJOY.....PIMP4003\n\nGuardians Of The Galaxy 2014 1080p R6Rip NEW AUDIO x264 Pimp4003\n\nENJOY\n\nPIMP4003\n\nVideo\nID                                       : 2\nFormat                                   : AVC\nFormat/Info                              : Advanced Video Codec\nFormat profile                           : &lt;a class=&quot;__cf_email__&quot; href=&quot;/cdn-cgi/l/email-protection&quot; data-cfemail=&quot;a5e7c4d6c0c9cccbc0e5e9908b95&quot;&gt;[email&amp;#160;protected]&lt;/a&gt;&lt;script cf-hash='f9e31' type=&quot;text/javascript&quot;&gt;\n/* &lt;![CDATA[ */!function(){try{var t=&quot;currentScript&quot;in document?document.currentScript:function(){for(var t=document.getElementsByTagName(&quot;script&quot;),e=t.length;e--;)if(t[e].getAttribute(&quot;cf-hash&quot;))return t[e]}();if(t&amp;&amp;t.previousSibling){var e,r,n,i,c=t.previousSibling,a=c.getAttribute(&quot;data-cfemail&quot;);if(a){for(e=&quot;&quot;,r=parseInt(a.substr(0,2),16),n=2;a.length-n;n+=2)i=parseInt(a.substr(n,2),16)^r,e+=String.fromCharCode(i);e=document.createTextNode(e),c.parentNode.replaceChild(e,c)}}}catch(u){}}();/* ]]&gt; */&lt;/script&gt;\nFormat settings, CABAC                   : No\nFormat settings, ReFrames                : 1 frame\nFormat settings, GOP                     : M=1, N=25\nMuxing mode                              : Container profile=&lt;a class=&quot;__cf_email__&quot; href=&quot;/cdn-cgi/l/email-protection&quot; data-cfemail=&quot;0f4d6e7c6a6366616a4f3b213e&quot;&gt;[email&amp;#160;protected]&lt;/a&gt;&lt;script cf-hash='f9e31' type=&quot;text/javascript&quot;&gt;\n/* &lt;![CDATA[ */!function(){try{var t=&quot;currentScript&quot;in document?document.currentScript:function(){for(var t=document.getElementsByTagName(&quot;script&quot;),e=t.length;e--;)if(t[e].getAttribute(&quot;cf-hash&quot;))return t[e]}();if(t&amp;&amp;t.previousSibling){var e,r,n,i,c=t.previousSibling,a=c.getAttribute(&quot;data-cfemail&quot;);if(a){for(e=&quot;&quot;,r=parseInt(a.substr(0,2),16),n=2;a.length-n;n+=2)i=parseInt(a.substr(n,2),16)^r,e+=String.fromCharCode(i);e=document.createTextNode(e),c.parentNode.replaceChild(e,c)}}}catch(u){}}();/* ]]&gt; */&lt;/script&gt;\nCodec ID                                 : avc1\nCodec ID/Info                            : Advanced Video Coding\nDuration                                 : 2h 1mn\nBit rate                                 : 4 170 Kbps\nWidth                                    : 1 920 pixels\nHeight                                   : 1 080 pixels\nDisplay aspect ratio                     : 16:9\nFrame rate mode                          : Constant\nFrame rate                               : 23.976 fps\nOriginal frame rate                      : 23.000 fps\nColor space                              : YUV\nChroma subsampling                       : 4:2:0\nBit depth                                : 8 bits\nScan type                                : Progressive\nBits/(Pixel*Frame)                       : 0.084\nStream size                              : 3.53 GiB (97%)\nWriting library                          : ointer\nLanguage                                 : English\n\nAudio\nID                                       : 1\nFormat                                   : AAC\nFormat/Info                              : Advanced Audio Codec\nFormat profile                           : LC\nCodec ID                                 : 40\nDuration                                 : 2h 1mn\nBit rate mode                            : Constant\nBit rate                                 : 137 Kbps\nChannel(s)                               : 2 channels\nChannel positions                        : Front: L R\nSampling rate                            : 48.0 KHz\nCompression mode                         : Lossy\nStream size                              : 119 MiB (3%)\nLanguage                                 : English\n &lt;a href=&quot;\nhttp://i.imgur.com/iRbSdIF.png&quot; rel=&quot;nofollow&quot; target=&quot;_NEW&quot;&gt;\nhttp://i.imgur.com/iRbSdIF.png&lt;/a&gt; &lt;a href=&quot;\nhttp://i.imgur.com/inLih0l.png&quot; rel=&quot;nofollow&quot; target=&quot;_NEW&quot;&gt;\nhttp://i.imgur.com/inLih0l.png&lt;/a&gt; &lt;a href=&quot;\nhttp://i.imgur.com/XVIJgXY.jpg&quot; rel=&quot;nofollow&quot; target=&quot;_NEW&quot;&gt;\nhttp://i.imgur.com/XVIJgXY.jpg&lt;/a&gt;",
  "parsed": {
    "xt": "urn:btih:1e6af33076316ea8d6f970b220596fd3c96c1d34",
    "dn": "Guardians Of The Galaxy 2014 1080p R6Rip NEW AUDIO x264 Pimp4003",
    "tr": [
      "udp://exodus.desync.com:6969",
      "udp://open.demonii.com:1337",
      "udp://tracker.coppersurfer.tk:6969",
      "udp://tracker.openbittorrent.com:80"
    ],
    "infoHash": "1e6af33076316ea8d6f970b220596fd3c96c1d34",
    "infoHashBuffer": {
      "type": "Buffer",
      "data": [
        30,
        106,
        243,
        48,
        118,
        49,
        110,
        168,
        214,
        249,
        112,
        178,
        32,
        89,
        111,
        211,
        201,
        108,
        29,
        52
      ]
    },
    "name": "Guardians Of The Galaxy 2014 1080p R6Rip NEW AUDIO x264 Pimp4003",
    "announce": [
      "udp://exodus.desync.com:6969",
      "udp://open.demonii.com:1337",
      "udp://tracker.coppersurfer.tk:6969",
      "udp://tracker.openbittorrent.com:80"
    ],
    "urlList": []
  },
  "previous": 13,
  "peers": 3,
  "last_updated": "2016-12-26T18:18:20.283Z"
}